<svg id="Layer_1" data-name="Layer 1" xmlns="http://www.w3.org/2000/svg" viewBox="0 0 426.66 137.24"><defs><style>.cls-1{fill:#fff;}.cls-2{stroke:#fff;stroke-width:0.58px;}</style></defs><ellipse class="cls-1" cx="356.64" cy="68.36" rx="66.46" ry="67.34"/><path d="M472.33,310.18a11.47,11.47,0,0,0,.1,1.94,5.2,5.2,0,0,1,0,1.19h-1.51a2.62,2.62,0,0,0,.1,1c.09.32-.07.69.13,1a6.85,6.85,0,0,0,.12,1.35,3.36,3.36,0,0,0,.15.65h.5a2.7,2.7,0,0,1,.15.49,2.46,2.46,0,0,0,.11.65c.08.21,0,.47.12.71s0,.64.14.93,0,.63.21.91c0,0,0,.17-.06.25a.46.46,0,0,0,0,.2,12.21,12.21,0,0,1,.31,1.33c.14.53.21,1.07.4,1.58a17.83,17.83,0,0,0,.58,1.91h-1.24c.2.65.37,1.25.56,1.85s.35,1,.52,1.48c.34,1,.71,1.95,1.08,2.93.06.16.14.31.21.46h4c-.25-.54-.46-1.08-.66-1.63s-.33-.83-.51-1.25c-.33-.78-.58-1.58-.88-2.37-.17-.47-.31-1-.49-1.5h1.2c-.21-.64-.4-1.26-.54-1.88a13.59,13.59,0,0,1-.53-2.18,1.57,1.57,0,0,0-.2-.61c-.09-.2.08-.38,0-.6s0-.63-.15-.86,0-.54-.19-.8a2.56,2.56,0,0,1-.14-.93,3.3,3.3,0,0,1-.13-.89c0-.05-.14-.17-.23-.2a2.16,2.16,0,0,0-.45,0,5.56,5.56,0,0,0-.15-1.21,3.23,3.23,0,0,0-.11-.94c-.15-.32,0-.64-.1-.95a1.68,1.68,0,0,1-.09-.84h1.48a3.94,3.94,0,0,0-.09-1.41,2,2,0,0,1,0-.69,3.13,3.13,0,0,0,0-.92,3.59,3.59,0,0,1-.1-.93,4.15,4.15,0,0,0-.79,0h-.82v-4.29h1.58c0-.82.1-1.6.15-2.37,0-.06,0-.11,0-.19h-1.58c.13-.44,0-.88.09-1.28a5.82,5.82,0,0,0,.1-1.24s.06-.06.09-.06c.61,0,.62,0,.6-.6a4,4,0,0,1,.12-.77c0-.23-.05-.49.11-.71.05-.07,0-.19,0-.29s-.26-.32-.08-.52,0-.37.09-.55c.18-.53.12-1.12.36-1.67h-1.17c0-.23-.06-.43.08-.66s0-.42.12-.65.06-.43.13-.64a6.45,6.45,0,0,0,.16-.63h.25l.65-2.56h3.2c.1-.29.19-.58.29-.87l0,0-.05,0H476.5a4.18,4.18,0,0,1,.16-.77,9.3,9.3,0,0,0,.57-1.86c0-.08.08-.14.14-.23l-.28-.1,1.12-3h1.19c.31-.71.58-1.41.92-2.08.14-.28.14-.6.41-.84a3.15,3.15,0,0,0,.45-.83c.16-.29.32-.57.47-.86l.42-.87.2-.43-.47,0c0-.05,0-.09,0-.11l1.5-2.77h1.61a67.94,67.94,0,0,1,4.61-6.77h-1.6a2.12,2.12,0,0,1,.15-.28c.49-.59,1-1.16,1.44-1.79l.09-.08c.44-.48.89-.95,1.31-1.44,1.3-1.54,2.8-2.88,4.21-4.31a16,16,0,0,1,1.7-1.49c.32-.24.59-.54.9-.79.88-.73,1.79-1.41,2.68-2.1,1.28-1,2.65-1.87,4-2.79.6-.4,1.23-.76,1.86-1.12.81-.48,1.63-1,2.45-1.4s1.54-.79,2.31-1.16,1.33-.65,2-.93c1.08-.45,2.13-.94,3.25-1.29a5.15,5.15,0,0,0,.54-.23,2.91,2.91,0,0,1,1.54-.23,3.93,3.93,0,0,0,1.52-.27,10.4,10.4,0,0,0,1.33-.45,12.87,12.87,0,0,1,1.33-.43c.55-.17,1.12-.3,1.68-.44a13.22,13.22,0,0,1,1.65-.4c.21-.24.52,0,.78-.21s.56-.06.82-.14c.64-.22,1.33-.21,2-.46.35.08.66-.12,1-.12s.39-.08.59-.11.43.09.6-.12h0c.45,0,.9-.07,1.35-.12l.77-.11c.26,0,.54.09.77-.12h0a4.17,4.17,0,0,0,1.41-.12c1.54,0,3.07-.18,4.61-.12.93,0,1.87,0,2.8,0,.37,0,.74.09,1.12.11a6.41,6.41,0,0,1,1.16,0,6.6,6.6,0,0,0,1.17.1c.24,0,.48.08.71.11s.5-.07.72.12c0,0,.15,0,.23,0a9.35,9.35,0,0,1,1.4.14c.26.06.52,0,.77.11s.48.05.71.12c.51.14,1,.13,1.55.32.23.08.51,0,.77.12s.52.05.75.13a16.68,16.68,0,0,0,1.69.42c.56.15,1.13.29,1.7.41.42.09.83.23,1.25.36s.77.2,1.14.33a5.21,5.21,0,0,0,1.08.34.49.49,0,0,1,.17.06h9.59c-.45-.23-.89-.43-1.34-.65-1-.47-2-.88-3-1.32s-1.88-.71-2.81-1.1a30.14,30.14,0,0,0-2.87-1c-.53-.17-1.07-.33-1.61-.46s-1.23-.32-1.84-.49c-.41-.12-.84-.2-1.26-.31a6,6,0,0,0-1-.25,8.1,8.1,0,0,1-1.47-.27c-.74-.18-1.51-.22-2.26-.43a7.51,7.51,0,0,1-.77-.11c-.25-.08-.54,0-.82-.11a8.19,8.19,0,0,0-1.4-.13c-.08,0-.19,0-.23,0a.92.92,0,0,0-.77-.1c-.28,0-.51-.13-.77-.13a5.73,5.73,0,0,1-1.3-.09,3.33,3.33,0,0,0-1.22,0c-.42,0-.81-.16-1.23-.14s-.89,0-1.34,0h-2a16.66,16.66,0,0,0-2,.09c-.71.12-1.44,0-2.17.13-.43.09-.89,0-1.35.11s-.82,0-1.23.12-.59,0-.88.12a6.38,6.38,0,0,1-.89.1c-.51.09-1,.19-1.53.24s-1.1.18-1.64.27a8.3,8.3,0,0,0-.87.14,4.89,4.89,0,0,1-.86.2,4.74,4.74,0,0,0-.75.15c-.56.16-1.13.26-1.68.43-.4.12-.81.19-1.21.33s-.83.21-1.24.36a8.78,8.78,0,0,0-1,.25,6.57,6.57,0,0,1-.92.3c-1,.34-2,.72-3,1.07s-2.09.84-3.15,1.25c-.77.3-1.49.7-2.24,1.06-.29.14-.59.26-.87.41a1.72,1.72,0,0,1-1,.33c-.35,0-.7,0-1.05,0h-.17a.47.47,0,0,0-.16,0,15.76,15.76,0,0,0-1.59.8c-.62.4-1.27.76-1.92,1.12-.83.46-1.63,1-2.41,1.48-1.25.81-2.48,1.65-3.67,2.56l-2.21,1.67c-.48.36-.92.77-1.39,1.15a24.38,24.38,0,0,0-1.88,1.65c-1.87,1.9-3.86,3.71-5.58,5.77-.6.73-1.19,1.46-1.8,2.17s-1.11,1.5-1.72,2.2c-.2.24-.35.52-.54.8.55,0,1,0,1.61.06a4.26,4.26,0,0,0-.39.44c-.49.73-1,1.45-1.44,2.2s-.9,1.45-1.33,2.18-.73,1.25-1.07,1.91H479c-.23.42-.45.79-.65,1.17s-.55,1.06-.82,1.59c0,0,0,.07,0,.14h.49c-.16.34-.3.61-.41.89-.19.48-.47.92-.64,1.42a2.62,2.62,0,0,1-.48.86,1.78,1.78,0,0,0-.28.57c-.29.74-.57,1.47-.85,2.2h-1.21c-.24.67-.49,1.34-.73,2-.09.26-.16.52-.24.78s.13.21.22.29a1.21,1.21,0,0,0-.1.14c-.17.6-.38,1.2-.54,1.81-.07.28-.27.58-.11.92h3.06l-.24.91h-3.19c-.21.86-.42,1.71-.62,2.54l-.29,0c-.17.84-.34,1.68-.5,2.53.39,0,.78,0,1.18,0-.05.31-.11.58-.15.86s-.05.75-.13,1.11c0,.14-.16.29-.09.42a1.1,1.1,0,0,1,0,.78,17.08,17.08,0,0,0-.15,1.78c-.14.27-.44.09-.67.18a8.5,8.5,0,0,1-.1,1.23,6.29,6.29,0,0,0,0,1.31h1.52a7.79,7.79,0,0,1-.11,1.68,2.79,2.79,0,0,0,0,.87h-.84a3.18,3.18,0,0,0-.76,0v4.29h1.58C472.24,309.64,472.3,309.91,472.33,310.18Z" transform="translate(-182.67 -238.28)"/><path d="M609.33,309.35h-1.62V305h1.58a10.54,10.54,0,0,0-.14-2.57h-1.58v-.72a1.76,1.76,0,0,0,0-.69c-.18-.38,0-.74-.11-1.12l.59,0c0-.22-.09-.39-.11-.58,0-.48-.08-1-.12-1.46a.47.47,0,0,0-.06-.15,7.65,7.65,0,0,1-.4-1.7,11.79,11.79,0,0,1-.16-1.23H606c-.07-.36-.14-.7-.22-1a10.29,10.29,0,0,0-.28-1.34.27.27,0,0,1,0-.15c.31,0,.23-.28.18-.38-.17-.34-.17-.73-.31-1.09a6.33,6.33,0,0,1-.24-1.12h3.21l-.26-.93H604.9l-.87-2.89-.28,0c-.35-1-.71-2-1.07-3h1.19l-.26-.69-.24-.61c-.08-.21-.18-.43-.27-.64a2.23,2.23,0,0,0-.25-.59c-.16-.2,0-.42-.13-.61s-.21-.54-.33-.8c-.31-.66-.63-1.32-.95-2h-.59c-.39-1-1-1.87-1.47-2.91H601a70.79,70.79,0,0,0-4.27-6.76H595a.56.56,0,0,0,0-.18c-.45-.61-.89-1.23-1.36-1.82-.62-.78-1.22-1.56-1.86-2.32-.47-.57-1-1.11-1.44-1.67s-.81-.92-1.24-1.35c-1.06-1.07-2.08-2.17-3.22-3.16-.76-.65-1.48-1.36-2.26-2l-1.42-1.19c-.53-.45-1.1-.84-1.63-1.28-.85-.69-1.77-1.28-2.65-1.92-.6-.45-1.23-.86-1.86-1.26s-1.27-.7-1.87-1.1-1.38-.81-2.06-1.22c-.19-.11-.38-.22-.58-.32h-8.91l.94.38c1.14.44,2.24,1,3.35,1.47.6.28,1.21.55,1.79.88s1.44.74,2.14,1.17c.53.33,1.1.63,1.65.94.82.47,1.61,1,2.4,1.51s1.4.93,2.09,1.41c.41.29.79.63,1.19.93s.79.54,1.17.83l.68.59c.65.59,1.35,1.1,2,1.7.38.35.74.72,1.14,1a41.73,41.73,0,0,1,3.23,3.15c.41.42.81.85,1.2,1.3s1,1.19,1.55,1.81.91,1.13,1.35,1.69h1.6a69.64,69.64,0,0,1,4.61,6.75h-1.59c.55,1,1.06,1.93,1.6,2.91h.58c.19.36.39.71.57,1.06.28.58.55,1.17.82,1.76a4.12,4.12,0,0,1,.13.47,12.19,12.19,0,0,0,.61,1.44c.18.38.3.79.46,1.23H598.7c.39,1,.76,2,1.13,3h.22a1.79,1.79,0,0,1,.12.24,21.89,21.89,0,0,1,.75,2.42c.05.21.18.26.38.26h3l.25.92h-3.21c.22.87.44,1.7.66,2.55h-.29c.11.53.21,1,.32,1.54a2.88,2.88,0,0,1,.12.77.25.25,0,0,0,.29.27h.91c.28.27.1.66.31.93-.09.39.12.74.12,1.12a1.09,1.09,0,0,0,.08.31,3.63,3.63,0,0,1,.27,1.18c0,.43.15.85.12,1.29,0,.07.08.15.16.28l-.65,0c.07.38-.07.75.11,1.12a1.76,1.76,0,0,1,0,.69v.72h1.57a9.66,9.66,0,0,1,.18,2.57H604c.08.47-.14.92.12,1.36-.05.29.12.62-.09.89s.15.22.09.35a4.75,4.75,0,0,0-.11,1.64s0,0,0,.07h1.59a4.07,4.07,0,0,1-.11,1.52.48.48,0,0,0,0,.12c.09.76-.14,1.51-.12,2.32h-1.64a7.85,7.85,0,0,1-.13,1.55c0,.57-.18,1.13-.23,1.71a6.13,6.13,0,0,0-.09.69l.55,0c-.07.68-.28,1.32-.32,2-.28.22,0,.57-.21.85a1.51,1.51,0,0,0-.13.81c0,.23-.36.28-.24.54a7.84,7.84,0,0,0-.35,1.26c-.18.64-.32,1.3-.5,1.95s-.31,1-.47,1.52H600.4a64.32,64.32,0,0,1-3,7.78l.25.08a.34.34,0,0,0-.07.11,22.73,22.73,0,0,1-1.09,2.28c-.42.76-.82,1.53-1.24,2.29l-1,1.69c-.55.92-1.11,1.84-1.73,2.72s-1.37,2.06-2.17,3c-.15.17-.24.41-.42.51s-.47.15-.58.46-.35.36-.49.6a9.26,9.26,0,0,1-.65.78c-.29.4-.68.73-1,1.12-.41.54-.91,1-1.36,1.47-.28.31-.53.64-.82,1h1.11c-.65.65-1.22,1.24-1.81,1.81s-1.18,1.15-1.81,1.68-1.12.9-1.63,1.41c-.17.18-.51.2-.52.53-.29.09-.43.36-.66.52a7.14,7.14,0,0,0-.64.43,22.08,22.08,0,0,1-1.91,1.43c-.74.54-1.5,1.07-2.27,1.57-.6.39-1.25.73-1.86,1.12l-.5.32h4.81l-1.74,1h-4.81l1.74-1h-5.31L566.09,364h4.6c-.82.44-1.66.86-2.49,1.27s-1.37.64-2.06.95c-1.12.51-2.27,1-3.43,1.4s-2.22.84-3.35,1.19c-.61.19-1.21.37-1.82.54a28.19,28.19,0,0,1-2.74.7c-.19.24-.5,0-.74.19a1.88,1.88,0,0,1-.68.16,3.26,3.26,0,0,0-.77.13c-.22.09-.47,0-.64.12s-.45,0-.59.11-.47,0-.66.12-.5,0-.71.12a2.18,2.18,0,0,1-.71.1c-.2,0-.4.09-.6.11s-.38,0-.53.12h-.06l-1.64.12c-.24,0-.47.09-.71.11a2.63,2.63,0,0,0-.69,0,9.84,9.84,0,0,1-1.7.11,18.22,18.22,0,0,1-3,.1c-1,0-2.06,0-3.09,0-.8,0-1.59-.16-2.4-.11-.41-.18-.89,0-1.28-.14s-.94.05-1.37-.2c-.06,0-.15,0-.23,0a2.36,2.36,0,0,1-.83-.1c-.23-.1-.5,0-.77-.11a9.79,9.79,0,0,0-1-.12,2.05,2.05,0,0,0-.82-.14c-.26.05-.49-.19-.77-.11-.21-.22-.56,0-.77-.23a9,9,0,0,1-2-.38c-.77-.16-1.55-.36-2.31-.58s-1.56-.47-2.34-.68-1.27-.42-1.89-.65-1.3-.51-2-.74c-.5-.17-1-.38-1.46-.57-.85-.33-1.67-.74-2.51-1.1-1-.45-2-.95-3-1.49s-2-1.12-3-1.71c-1.22-.72-2.42-1.48-3.59-2.27a22.32,22.32,0,0,1-2-1.5c-.5-.41-1.06-.75-1.54-1.19-.2-.18-.47-.28-.69-.45-.54-.42-1-.89-1.55-1.32a54.61,54.61,0,0,1-4-3.78H492l-1-1a8.12,8.12,0,0,1-.87-1c-.25-.35-.62-.61-.87-1s-.69-.76-1-1.15-.64-.83-1-1.25l.2-.07c-.17-.26-.32-.51-.5-.75-.5-.67-1.05-1.31-1.51-2s-1.13-1.61-1.61-2.47a6.6,6.6,0,0,0-.6-1,9.67,9.67,0,0,1-.66-1.12,53.78,53.78,0,0,1-2.59-4.93c-.07-.15-.1-.41-.39-.42l0,0h-4.05a.77.77,0,0,0,.23.06,69.62,69.62,0,0,0,7.08,12.56l-.14.22c1.34,1.82,2.69,3.59,4.18,5.26h1.18c.41.46.82,1,1.28,1.43,1.22,1.25,2.46,2.48,3.7,3.71.07.07.14.2.2.2.36,0,.48.29.69.46a6.72,6.72,0,0,0,.54.53c.65.45,1.19,1,1.82,1.49s1,.8,1.44,1.19c.23.19.47.36.71.53.49.36,1,.7,1.47,1.08s.94.66,1.4,1,.82.54,1.23.81a13,13,0,0,0,1.1.72c.8.39,1.52.9,2.3,1.32.53.28,1,.61,1.56.88,1.95,1,3.91,2,5.94,2.81.47.19.93.4,1.4.58s.79.25,1.17.41c.77.33,1.58.58,2.37.87s1.59.47,2.39.71c.38.11.75.24,1.14.34.54.14,1.1.23,1.65.38s1.27.31,1.91.44c.25.06.52.08.76.15.47.14,1,.19,1.44.31a9.14,9.14,0,0,1,1.05.14c.26.1.55,0,.76.13s.4,0,.6.09.4.09.6.11a11.06,11.06,0,0,1,1.4.14,2.54,2.54,0,0,0,.77.09,4,4,0,0,1,.77.12,8.86,8.86,0,0,1,1.35.1,7.07,7.07,0,0,0,1.22,0c.41,0,.82.1,1.23.11.7,0,1.4,0,2.1,0s1.36,0,2,0,1.36-.12,2.05-.13,1.59-.07,2.39-.11h.06a1.15,1.15,0,0,1,.77-.11,6.49,6.49,0,0,0,.77-.11,6.41,6.41,0,0,0,.88-.11,8.65,8.65,0,0,1,.89-.11c.51-.08,1-.13,1.53-.25a3.84,3.84,0,0,0,.65-.11,3.29,3.29,0,0,1,.71-.11c.7-.08,1.37-.3,2.06-.39a2.27,2.27,0,0,0,.65-.11,15.53,15.53,0,0,1,1.62-.44l2.26-.59c.79-.21,1.54-.5,2.33-.71.33-.08.64-.23,1-.34.7-.25,1.41-.46,2.08-.75s1.4-.56,2.09-.86,1.59-.66,2.37-1c1.46-.71,2.92-1.4,4.32-2.22.61-.35,1.24-.67,1.85-1,.8-.47,1.56-1,2.36-1.46a13.57,13.57,0,0,0,1.18-.8c.5-.35,1-.7,1.49-1.06s1-.68,1.43-1.05.87-.78,1.35-1.09,1.12-.94,1.7-1.38a13.69,13.69,0,0,0,1.42-1.32c.09-.1.43-.07.27-.36.24-.05.37-.26.53-.42.92-.91,1.85-1.83,2.76-2.76.6-.61,1.18-1.25,1.77-1.88a.73.73,0,0,0,.07-.2l-1.09,0c.23-.28.43-.53.64-.77s.64-.7.94-1.07.8-1,1.2-1.54.76-1.06,1.18-1.56c.16-.19.23-.41.53-.41.06,0,.13-.12.18-.2.93-1.48,1.94-2.91,2.85-4.41.62-1,1.17-2.08,1.78-3.11.38-.63.64-1.32,1-2,.18-.38.43-.72.57-1.11.22-.61.55-1.16.78-1.77a.22.22,0,0,0,0-.08l-.22-.08.76-1.91c.25-.64.51-1.27.74-1.91a15.47,15.47,0,0,0,.69-2c.16-.68.42-1.3.63-2h1.13a4.58,4.58,0,0,0,.26-.73c.1-.69.39-1.32.49-2,.22-.17.08-.43.14-.64a4.61,4.61,0,0,0,.3-1.27.42.42,0,0,1,.13-.3,1,1,0,0,0,.11-.25c.18-.5.21-1,.34-1.54a4.21,4.21,0,0,1,.11-.6c.09-.19,0-.42.11-.65a3.58,3.58,0,0,0,.12-1H607c.17-1.34.33-2.65.5-4h1.59c-.05-.73.21-1.41.12-2.12a1.13,1.13,0,0,1,0-.58C609.43,310.18,609.24,309.77,609.33,309.35Z" transform="translate(-182.67 -238.28)"/><path d="M578.27,288.71h-3.06a1.42,1.42,0,0,1,.1-.89,1.47,1.47,0,0,0,.11-.59,2.69,2.69,0,0,0-.11-.89c-.09-.22,0-.54-.4-.53,0,0,0,0-.07-.07a10,10,0,0,1-1.27-2.33,4.32,4.32,0,0,0-.25-.63h1.2c-.08-.31-.17-.56-.22-.83a6.63,6.63,0,0,1-.29-1,1.63,1.63,0,0,0-.11-.42c0-.16,0-.35-.12-.46s.06-.27,0-.38a3.53,3.53,0,0,1-.23-1c0-.37-.08-.75-.11-1.12s0-.46,0-.73h-.6c0-.3-.06-.57.13-.8a10.29,10.29,0,0,1,.12-1.47c0-.21,0-.42,0-.64h.85a3.09,3.09,0,0,0,.8,0c-.07-.28-.14-.52-.19-.77a1.14,1.14,0,0,0-.37-.61.83.83,0,0,1-.27-.35c-.11-.37-.29-.7-.42-1.05s-.31-.69-.47-1a7.58,7.58,0,0,0-.56-1.05c-.16-.27-.37-.63-.07-1,0-.37.24-.59.53-.88h-1.61a5.49,5.49,0,0,0,.61-1.66,8,8,0,0,1,.13-1.7c0-.56-.18-1.08-.11-1.73-.17.28-.24.53-.4.62-.36.2-.66.53-1.12.53a.6.6,0,0,0-.38.19,6.92,6.92,0,0,0-1.66,2.1,1.88,1.88,0,0,1-.53.76c-.26-.18-.39-.45-.68-.54s-.71-.25-1.09-.33a6.14,6.14,0,0,0-1.12-.1.88.88,0,0,1-.27-.06,1.19,1.19,0,0,1-.64-1.44,2.54,2.54,0,0,0,.09-1.45,3.58,3.58,0,0,0-.93-1.63,3,3,0,0,1-.91,2.06,3.42,3.42,0,0,0-.52.71,5.62,5.62,0,0,0-.56,2.15,5.87,5.87,0,0,0,0,1.11c0,.36,0,.41.44.42h1.26c.11.21,0,.34-.13.46s-.61-.08-.88.12a4.47,4.47,0,0,0-1.83.51,7.52,7.52,0,0,0-2.46,1.64,5.56,5.56,0,0,1-2.26,1.42,4.35,4.35,0,0,1-1.94.39.87.87,0,0,0-.26.08.65.65,0,0,1-.59-.05s-.13,0-.24,0a.84.84,0,0,0,.67.57,4.86,4.86,0,0,0,1.36.24h1a1.39,1.39,0,0,1,0,.51,2.16,2.16,0,0,0-.24.61c0,.11-.17.2-.27.31h-1.57a2.53,2.53,0,0,1-1.35,1.23c-.63.26-1.25.52-1.87.83a2.24,2.24,0,0,0-.78.59H550c.09,0,.21,0,.27,0,.31.28.68.16,1,.2a4.45,4.45,0,0,1,1.36,1.84l-.23.54c-.09.22-.19.43-.29.64-.32,0-.29.33-.41.52a16.42,16.42,0,0,1-.89,1.5,8.63,8.63,0,0,0-.56.9H549a13.35,13.35,0,0,1-3.17,3l.1.12-.25.13a6.49,6.49,0,0,1-2.38.71,4.89,4.89,0,0,1-1.7-.07,7.08,7.08,0,0,1-2.15-.72.58.58,0,0,0-.3-.11,1.24,1.24,0,0,1-.75-.29l-.57-.32c-1-.52-2.08-1-3.14-1.41-.76-.31-1.52-.6-2.33-1h1a.83.83,0,0,0-.32-.17,6.85,6.85,0,0,0-.88-.4c-.93-.25-1.76-.74-2.69-1a2.4,2.4,0,0,0-1.22-.43,5.42,5.42,0,0,0-1.4-.15c-.5,0-1,0-1.51,0a5.48,5.48,0,0,0-1.29.13c-.58.17-1.17.25-1.74.45a22.4,22.4,0,0,0-2.34.94,6.92,6.92,0,0,1-1.06.52,5.94,5.94,0,0,1-1.24.06,28.29,28.29,0,0,0-4.34,2.95l.12.14a31.29,31.29,0,0,0-3.16,2.84h3.14l-.94.94h-3.17l-1.57,1.69c-.05,0-.07.13-.12.18-.25.26-.4.66-.85.7-.06,0-.12.08-.17.14a4.63,4.63,0,0,0-.59.75,4.61,4.61,0,0,1-.81,1l-.66.66h1.15a5.74,5.74,0,0,1-1.12.91,13.33,13.33,0,0,1-2.25,1.31,2.11,2.11,0,0,0-.59.26,3.09,3.09,0,0,1-1.18.54,26.53,26.53,0,0,1-2.79.87,12.13,12.13,0,0,1-1.74.4,10.66,10.66,0,0,1-2.52-.07,7.53,7.53,0,0,1-2.39-1c-.29-.19-.55-.44-.85-.61a1.93,1.93,0,0,1-.69-.64.75.75,0,0,0-.13-.18c-.06-.05-.09-.17-.21-.14a1.23,1.23,0,0,0,.33,1c.25.26.38.63.63.89a9,9,0,0,0,1.66,1.52l-.59.06a3.17,3.17,0,0,0,.29.2c.29.18.31.26.12.52a3,3,0,0,1-.5.6c-.3.23-.57.55-1,.51-.19.23-.5,0-.77.21l.47.49h1.38a1.14,1.14,0,0,1,.32.07,4.06,4.06,0,0,0,1,.37.39.39,0,0,1,.37.33,6.28,6.28,0,0,0,1,1.8h-1.64a10.31,10.31,0,0,0,.92.73,2.63,2.63,0,0,0,1.16.43,1.48,1.48,0,0,1,1.06.53,3.53,3.53,0,0,1,0,.46.76.76,0,0,1-.29.52c-.13.1-.3.14-.42.24a2.6,2.6,0,0,0-1.05,1.39h1.66a1.18,1.18,0,0,0,.45,1.12,4.24,4.24,0,0,0,1.52.85,18.39,18.39,0,0,0,3.44.85c.46.39.76.9,1.46,1.12-.55.06-1,0-1.5.08a5.11,5.11,0,0,0,.68.17,4.58,4.58,0,0,0,.64,0,2.14,2.14,0,0,0,.76,0,6.72,6.72,0,0,1,2.23-.22,1.48,1.48,0,0,0,.47,0c.65-.27,1.33-.43,2-.76s1.25-.63,1.87-1a17,17,0,0,0,1.86-1.39,4.24,4.24,0,0,0,.69-.84h-1.6A7.14,7.14,0,0,0,511.6,305h1.65c-.16-.5.18-.78.34-1.12a2.19,2.19,0,0,1,.32-.38h.53a1.81,1.81,0,0,1,.37,1.51h-1.5a9,9,0,0,0,1.34,4.31h1.58a11,11,0,0,0,2.3,2.79c0,.44-.07.8-.11,1.19h-1.48c0,.44,0,.87,0,1.29,0,.88.09,1.75.14,2.66h.67c0,.27,0,.51,0,.74a3.29,3.29,0,0,0,.1.71c0,.45.06.9.11,1.35a2.84,2.84,0,0,1,0,1.36.21.21,0,0,0,0,.11c.24.39.07.84.21,1.25a5.59,5.59,0,0,1,.12,1.17,21.44,21.44,0,0,1,0,2.27h-1.19q0,.38-.09.72a8.15,8.15,0,0,1-.15,1,6.1,6.1,0,0,0-.45,1.62c-.2.21,0,.5-.11.71a1.27,1.27,0,0,0-.1.71,7,7,0,0,0,.13.82,1.66,1.66,0,0,0,.49.89,4,4,0,0,1,.54.65c.23.24.26.7.73.69,0,0,.06.08.08.12.16.27.34.52.47.8.29.63.63,1.25.9,1.89.44,1,.87,2,1.24,3.1.27.77.55,1.52.79,2.3a5.48,5.48,0,0,0,.3.92c.16.3.14.68.28,1a1,1,0,0,1,.08.71c-.14.3,0,.62-.12.88s0,.6-.09.89a.9.9,0,0,1-.07.11h-.28a9.25,9.25,0,0,1-.09,1.08,3.81,3.81,0,0,0,.11,1.29.53.53,0,0,0,.29.34c.18.11.21-.16.34,0l.13-.13a3.47,3.47,0,0,1-.36,2.82h1.2c0,.12-.05.23-.11.28a.65.65,0,0,0-.23.66,2.12,2.12,0,0,0,.1.78,4.07,4.07,0,0,0,1.29,1.41A12.72,12.72,0,0,0,527,356.5a1.17,1.17,0,0,0,.7.14c.15,0,.31,0,.47,0s.31-.08.47-.11a.81.81,0,0,0,.65-1.15,2.23,2.23,0,0,0-.65-1,7.69,7.69,0,0,0-.18-2.29h-1.15a5.7,5.7,0,0,1-.75-3.57l.46-.41.17.14c.48-.38.46-1,.69-1.5l.3,0c0-.27,0-.52,0-.76a.72.72,0,0,0-.12-.42c-.28-.29-.14-.71-.34-1a9,9,0,0,0-.12-1.47c0-1.16,0-2.33,0-3.49a27.43,27.43,0,0,1,.09-3.51,12.93,12.93,0,0,0,0-2l-.23-.09v-.22a10.78,10.78,0,0,1,.1-1.7,16.8,16.8,0,0,0,0-1.74c0-.38.07-.75.11-1.12.24-.12,0-.39.19-.57s.11-.34.18-.5.2-.34.28-.52a1.43,1.43,0,0,1,.85-.85.72.72,0,0,0,.2-.09,2.66,2.66,0,0,1,.64-.43,2.73,2.73,0,0,1,.81,0h.35c.42-.32.82-.59,1.19-.91s.94-.83,1.39-1.27c.84-.82,1.65-1.65,2.48-2.47.2-.2.49-.32.64-.54a10.9,10.9,0,0,1,1.12-1.23c0-.05.14-.1.16-.16.06-.27.29-.37.42-.52a3.31,3.31,0,0,0,.42.11c.23.05.43-.1.65-.11a11.74,11.74,0,0,0,1.87-.11c.54-.09,1.1-.08,1.64-.13a1.42,1.42,0,0,0,.32-.14,1.1,1.1,0,0,1,.15.31c.09.31.16.63.24.95s.16.44.21.67.21.46,0,.71c0,0,0,.05.07.08a3.53,3.53,0,0,1,.15.46,19.64,19.64,0,0,0,.92,2.71c.18.53.38,1.05.59,1.61h-1.17c.28.67.53,1.32.84,1.94.44.89.79,1.82,1.29,2.67.4.67.75,1.36,1.12,2a2.93,2.93,0,0,0,.53.77,4.17,4.17,0,0,1,.28.38h.35a3.06,3.06,0,0,1,.27,1.63.94.94,0,0,1-.16.46c-.24.38-.59.72-.55,1.23-.19.15-.12.36-.1.53.06.69-.18,1.36-.13,2.05-.2.52-.17,1.08-.34,1.61s-.33,1.1-.56,1.63a.67.67,0,0,1-.44.37,3.59,3.59,0,0,1-1,.14c-.13,0-.28-.12-.41-.1a6,6,0,0,1-1.47-.14c-.29,0-.68,0-.71-.52a1.6,1.6,0,0,0-.32-.62,1.4,1.4,0,0,0-1.87-.64,4.81,4.81,0,0,0-1.65,1.2,8.11,8.11,0,0,1-.55.64,1.22,1.22,0,0,0-.44,1.23,5.34,5.34,0,0,0,3.22,1.21c.24.29.6.5.77.9.32-.07.6.18.93.11s.6,0,.91-.07a3.68,3.68,0,0,1,.93-.16,4.88,4.88,0,0,1-.16.7,2.72,2.72,0,0,1-.7,1.22.77.77,0,0,1-1.14.11,1.21,1.21,0,0,0-.88-.29h-.38a3.6,3.6,0,0,0-.46.49c-.09.17-.07.4-.17.57-.24.46-.21,1-.45,1.44.08.38-.18.73-.11,1.12h1.11c.05.53.09,1,.17,1.53a3,3,0,0,0,.23.84,3.06,3.06,0,0,0,1.3,1.54.73.73,0,0,0,.83.08,2.44,2.44,0,0,0,.64-.42,12.39,12.39,0,0,0,.83-.94,13.2,13.2,0,0,0,1.29-2.09.77.77,0,0,0,.08-.56h-1.17c.08-.09.14-.13.15-.17a1.63,1.63,0,0,1,.58-1,1.57,1.57,0,0,0,.35-.38,4.28,4.28,0,0,0,.59-2.09c0-.42,0-.85,0-1.28s.05-.35.35-.38a.82.82,0,0,0,.49-.22,4.1,4.1,0,0,0,1.13-1.45,9.79,9.79,0,0,1,1.23-1.94c.31-.42.67-.81,1-1.24.55-.78,1.21-1.46,1.79-2.22.29-.37.63-.71.94-1.06a.67.67,0,0,0,.09-.14,5.22,5.22,0,0,0,.46-1.27,3.88,3.88,0,0,0,.24-1.35c.26-.25,0-.6.16-.87s0-.6.08-.9l-.24-.09v-.33c0-.72.17-1.43.12-2.16a4.27,4.27,0,0,1,.11-1.59c.15-.5.32-1,.43-1.5s.32-.77.4-1.18a4.57,4.57,0,0,1,.47-1h1.12a15.09,15.09,0,0,0,1.82-5s.17-.08.18-.13c0-.5.21-1,.26-1.47a2.43,2.43,0,0,1,.12-.82c.13-.25,0-.5.1-.71a1.64,1.64,0,0,0,.1-.72.68.68,0,0,0,0-.17h-.59c.22-.69.23-1.38.5-2,.12-.28.24-.57.35-.86h-5.31l1.23-1.09h6.07a19.09,19.09,0,0,0,1.52-3.25c.06-.21.2-.4.07-.66-.23,0-.48,0-.73,0a3.35,3.35,0,0,1-.77,0,5.31,5.31,0,0,0-.68-4.28h1.61a7.05,7.05,0,0,1-.93-2.57h-1.56c-.05-.46-.12-.87-.15-1.28s0-.84,0-1.28H562a15.69,15.69,0,0,0,.13-1.65c0-.07.05-.14.06-.21l0-.66s-.07-.11-.05-.12c.2-.26,0-.58.17-.87a3,3,0,0,0,.14-.87c0-.24.13-.47.21-.75h-1.16c.05-.24-.08-.46.13-.63.07-.58.42-1.08.47-1.67,0-.08.09-.21.15-.22.34,0,.33-.34.39-.53.13-.42.18-.86.27-1.29a1.45,1.45,0,0,0,.13-.59s.12-.15.2-.17a1,1,0,0,1,.35,0c.82,0,1.63,0,2.45,0,.15,0,.29,0,.33-.15a7.23,7.23,0,0,0,.17-.79h-3.2l.61-2.87-.23-.08c0-.39.08-.79.13-1.17,0-.07.11-.12.16-.17.2.28.4.53.57.78s.32.6.73.63c.1,0,.25.17.27.28s.18.24.27.35c.21.27.45.51.65.78a9.49,9.49,0,0,0,1.25,1.48H571l.76.93h-3.23a5,5,0,0,1,.61.62,4.24,4.24,0,0,0,2.35,1.76,1.78,1.78,0,0,0,1.66-.13,2.14,2.14,0,0,0,.91-1c.08-.16.15-.4.28-.46.4-.16.48-.53.71-.84h3.16C578.22,289.34,578.46,289.06,578.27,288.71Zm-48,26.49c-.14.34-.14.72-.25,1.06a5.62,5.62,0,0,1-.5,1l.62,0a16.69,16.69,0,0,1-1.49,2.14,14.45,14.45,0,0,1-1.25,1.45c-.65.58-1.23,1.22-1.89,1.77a13.86,13.86,0,0,0-1.05,1,2.21,2.21,0,0,0-.71,1.74c0,.28,0,.57,0,.88h-1.16a4.23,4.23,0,0,0,1,1.55c.18.15.15.37.24.55s0,.38.12.59a3.6,3.6,0,0,1,.13.82c0,.27.07.55.12.82s.08.4.11.59,0,.39.12.54,0,0,0,.06c0,.5.11,1,.1,1.52,0,.24.13.43.14.65,0,.07.19.11.22.19a2.87,2.87,0,0,1,.12.65c0,1.15.19,2.29.12,3.44a11.08,11.08,0,0,1,.11,2.57c0,.86,0,1.71,0,2.57a3,3,0,0,1-.11.58H525c-.19-.43-.39-.85-.56-1.28a15.72,15.72,0,0,1-.62-1.61c-.06-.22-.23-.39-.24-.6s-.16-.41-.2-.61a11.46,11.46,0,0,0-.39-1.3c-.21-.69-.47-1.37-.64-2.06s-.42-1.28-.53-1.94a2.84,2.84,0,0,0-.15-.47l-.3,0a6.14,6.14,0,0,1-.23-1,3,3,0,0,1,.2-1.65l0-.05c0-.51.11-1,.1-1.53,0-.27-.12-.54-.1-.82a3.1,3.1,0,0,0-.2-.85c0-.27-.13-.53-.2-.79a3.43,3.43,0,0,1-.07-.56c0-.14.06-.31-.15-.45.45-.08.87,0,1.32-.06a5.4,5.4,0,0,1,0-.9,4.88,4.88,0,0,1,.57-2,23.15,23.15,0,0,1,1.34-2.18,1.93,1.93,0,0,0,.37-.71c.24-.74.62-1.43.79-2.18a2.18,2.18,0,0,0,.16-.92l-.43,0c-.08-.35.14-.67.15-1,0-.05.06-.09.06-.14,0-.49.08-1,.13-1.47s.1-.85.15-1.3h1.56c.13-.75-.24-1.48,0-2.19.36.38.72.8,1.12,1.16s.85.65,1.33,1H527.7l2.33,1.51C530.17,314.91,530.28,315,530.22,315.2ZM554,323.77c0,.41-.12.83-.1,1.23s-.18.78-.13,1.22h-1.23a6.47,6.47,0,0,1-1.58,3.47,9.17,9.17,0,0,1-.58-1.72c-.14-.56-.22-1.13-.38-1.73h1.22c-.07-.27.11-.54-.13-.77a.4.4,0,0,1,0-.11c0-.86-.09-1.72-.11-2.57a10.21,10.21,0,0,0,.12-1.24c0-.09.09-.19.15-.29a4.44,4.44,0,0,1,1.33-.28,4.33,4.33,0,0,1,1.29.42,5.28,5.28,0,0,0,.06,1.18A4.82,4.82,0,0,1,554,323.77Z" transform="translate(-182.67 -238.28)"/><path class="cls-1" d="M251.27,241.29a65.61,65.61,0,1,1-65.6,65.61,65.68,65.68,0,0,1,65.6-65.61m0-3a68.61,68.61,0,1,0,68.61,68.61,68.68,68.68,0,0,0-68.61-68.61Z" transform="translate(-182.67 -238.28)"/><polygon class="cls-1" points="244.71 39.6 243.89 38.78 214.48 68.19 185.07 38.78 184.26 39.6 213.67 69.01 184.26 98.42 185.07 99.23 214.48 69.82 243.89 99.23 244.71 98.42 215.3 69.01 244.71 39.6"/><path class="cls-1" d="M434.89,308.51a6.94,6.94,0,0,1-4.57,1.34h-3.79v6.55h-3.79V298.17h7.83a6.35,6.35,0,0,1,4.32,1.41,5.52,5.52,0,0,1,1.6,4.37Q436.49,307.18,434.89,308.51ZM432,302a3.06,3.06,0,0,0-2-.61h-3.43v5.37H430a2.92,2.92,0,0,0,2-.66,2.69,2.69,0,0,0,.72-2.08A2.51,2.51,0,0,0,432,302Z" transform="translate(-182.67 -238.28)"/><path class="cls-1" d="M359.55,298.17,362,308.61l.52,2.91.53-2.85,2.06-10.5h4l2.16,10.44.56,2.91.56-2.8,2.43-10.55h3.88l-5.13,18.23H369.9l-2.2-10.66-.64-3.52-.65,3.52-2.2,10.66h-3.53l-5.17-18.23Z" transform="translate(-182.67 -238.28)"/><path class="cls-2" d="M402,272.26a4.6,4.6,0,0,1,.84,2.77,4.07,4.07,0,0,1-.84,2.68,4.53,4.53,0,0,1-1.39,1,4,4,0,0,1,2.1,1.6,4.82,4.82,0,0,1,.71,2.66,5.32,5.32,0,0,1-.81,2.9,5.19,5.19,0,0,1-1.29,1.43,5.11,5.11,0,0,1-2.05.91,12.9,12.9,0,0,1-2.57.24h-8.18V270.33h8.78C399.54,270.36,401.11,271,402,272.26Zm-9.86,1.22v4h4.42a3.64,3.64,0,0,0,1.92-.45,1.73,1.73,0,0,0,.74-1.6,1.62,1.62,0,0,0-1-1.67,6.78,6.78,0,0,0-2.14-.29Zm0,7v4.84h4.41a4.19,4.19,0,0,0,1.84-.32,2.28,2.28,0,0,0,1.2-2.27,2,2,0,0,0-1.16-1.94,4.59,4.59,0,0,0-1.82-.31Z" transform="translate(-182.67 -238.28)"/><path class="cls-2" d="M392.1,338.18a3.59,3.59,0,0,0,.69,1.86,4,4,0,0,0,3.23,1.12,6.9,6.9,0,0,0,2.23-.3,2.12,2.12,0,0,0,1.62-2.11,1.57,1.57,0,0,0-.8-1.39,8.74,8.74,0,0,0-2.52-.85l-2-.43a12.33,12.33,0,0,1-4-1.39,4.42,4.42,0,0,1-1.84-3.93,5.22,5.22,0,0,1,1.79-4.05,7.65,7.65,0,0,1,5.28-1.62,8.06,8.06,0,0,1,5,1.53A5.42,5.42,0,0,1,403,331H399.3a2.6,2.6,0,0,0-1.46-2.33,5.08,5.08,0,0,0-2.26-.45,4.3,4.3,0,0,0-2.4.59,1.86,1.86,0,0,0-.9,1.65,1.56,1.56,0,0,0,.88,1.45,10.39,10.39,0,0,0,2.42.75l3.18.76a7.92,7.92,0,0,1,3.14,1.31,4.43,4.43,0,0,1,1.63,3.71,5.18,5.18,0,0,1-1.93,4.13,8.08,8.08,0,0,1-5.43,1.65,8.88,8.88,0,0,1-5.64-1.62,5.37,5.37,0,0,1-2.06-4.45Z" transform="translate(-182.67 -238.28)"/><path class="cls-1" d="M299.6,302.92c-1.07,3.32-3.39,3.32-3.39,3.32-1.56.36-.6,1.4-.6,1.4,5.11,3.32-4,4.55-4,4.55-2.33,3.68-9.24-1-9.24-1a7,7,0,0,1-3.26-6.5c-1.23-2.64-1.71-.14-1.71-.14a10.77,10.77,0,0,1-3.68,7.68,75.78,75.78,0,0,1-.48,8.41c-1.08,6.46,0,8.09,0,8.09,1.09,3.68-.44,4.36-.44,4.36-2.92,4-4.95,11.77-4.95,11.77,1.07,6.5-.45,4.73-.45,4.73-.76,1.23.6,3.32.6,3.32.92,2.46-4.16,4-4.16,4-3.71.37-1.4-2.27-1.4-2.27a4.5,4.5,0,0,1,.64-3.18c.92-3.67-.47-3-.47-3-1.09-1.91-.33-3-.33-3,.76-2.27,0-14.37,0-14.37a5.69,5.69,0,0,0-1.2-4c-2.75-1.23-8.52-7.86-8.52-7.86a34,34,0,0,1-5.07-.37,54.47,54.47,0,0,1-6,14.73,2.43,2.43,0,0,0-.79,2.63,3.05,3.05,0,0,1,.79,1.91,12,12,0,0,0,1.08,5.45c.48.73,3.85,0,3.85,0,1.4-4.54,5.07.88,5.07.88.13,1.4-3.35,1.77-3.35,1.77-1.09,1.77-3.88.67-3.88.67.76,3.33,2.16,2.1,2.16,2.1,1.4-.91,1.72.54,1.72.54,1.88,5.27-.8,6.64-.8,6.64-1.41,1.55-3.84-3.32-3.84-3.32a2.91,2.91,0,0,0-.49-1.41c-1.71-1.22-1.23-4.36-1.23-4.36a3.28,3.28,0,0,1-1.52-1.41c-.61-1.77-5.24-7-5.24-7-1.24-2.63-1.08-7.73-1.08-7.73a22,22,0,0,0-1.71-5.27c-1.57-2.46-2.18-8.41-2.18-8.41,0-2.09-2.3-6.13-2.3-6.13-1.72-4,0-6,0-6a6.93,6.93,0,0,0,1.08-3.5c.44-2.82-.94-7.91-.94-7.91a88.33,88.33,0,0,1-2.3-9.63c-.81,1.4-5.09,6.32-5.09,6.32a4.2,4.2,0,0,1-2.6,1.59,2.36,2.36,0,0,1-2.31-1.59c-1.09-.55-.93-2.27-.93-2.27a3.26,3.26,0,0,1,.61-3.51A23.13,23.13,0,0,0,216.9,280a11.74,11.74,0,0,0,.32-4.91c-.47-2.45.64-3,.64-3a25.36,25.36,0,0,1,1.2-2.81,1.61,1.61,0,0,0-.28-2.46c-.92-1.59-.48-5.47-.48-5.41-.18,1.24,1.4,1.55,1.4,1.55,1.25.32,2.6,3.18,2.6,3.18.92-1.23,3.06-1,3.06-1,1.2-.35.81-1.69.81-1.69-.61-1.59.93-3.06.93-3.06a2.67,2.67,0,0,0,.75,2.1c1.69,1.41,1.08,4.91,1.08,4.91a8.74,8.74,0,0,1,5.89,2.82,7.13,7.13,0,0,0,4.91,1.37c-.63,1-3.23.71-3.23.71a3.66,3.66,0,0,0,1.71,2.65c2.8,1,2.92,1.54,2.92,1.54-1.83-.54-2.75,2.13-2.75,2.13,5.39,12.1,12.63,7,12.63,7,2.64-1.59,11.13-4.73,11.13-4.73,10.35-2.81,21.71,12.1,21.71,12.1,2.92,4.35,10,5.77,10,5.77,5.57,1.73,8.21-2.46,8.21-2.46.15,1.92-3.12,4.06-3.12,4.06a2.52,2.52,0,0,0,2.49,1.58A2.66,2.66,0,0,1,299.6,302.92ZM237,321.5c-.6,6.85,1.77,8.32,1.77,8.32,1.24-2.72,1.32-8.24.85-8.5A3.13,3.13,0,0,0,237,321.5Zm28.45-10.7c-.62,1.56-5.08,4.11-5.08,4.21,0,3.43,6.1,8.5,6.1,8.5,2.32,2.36-.31,4.55-.31,4.55-1.61,7.19-1.16,16.31-1.16,16.31,1.31-2,3.64-10.6,3.64-10.6a3.78,3.78,0,0,0,.13-1.49,7.15,7.15,0,0,1,.08-4.55,7.34,7.34,0,0,0-.29-4.22A17.87,17.87,0,0,1,265.42,310.8Z" transform="translate(-182.67 -238.28)"/></svg>